<?xml version="1.0" encoding="UTF-8" standalone="no"?>
<!-- Created with Inkscape (http://www.inkscape.org/) -->

<svg
   width="49.999992mm"
   height="49.999996mm"
   viewBox="0 0 49.999992 49.999996"
   version="1.1"
   id="svg8"
   sodipodi:docname="CryoGridLogo_git.svg"
   inkscape:version="1.2.2 (732a01da63, 2022-12-09, custom)"
   inkscape:export-filename="../8840a588/CryoGridLogo_git.png"
   inkscape:export-xdpi="300"
   inkscape:export-ydpi="300"
   xmlns:inkscape="http://www.inkscape.org/namespaces/inkscape"
   xmlns:sodipodi="http://sodipodi.sourceforge.net/DTD/sodipodi-0.dtd"
   xmlns="http://www.w3.org/2000/svg"
   xmlns:svg="http://www.w3.org/2000/svg"
   xmlns:rdf="http://www.w3.org/1999/02/22-rdf-syntax-ns#"
   xmlns:cc="http://creativecommons.org/ns#"
   xmlns:dc="http://purl.org/dc/elements/1.1/">
  <defs
     id="defs2">
    <rect
       x="139.78201"
       y="284.57214"
       width="277.66284"
       height="223.74962"
       id="rect4787" />
    <marker
       inkscape:stockid="StopM"
       orient="auto"
       refY="0"
       refX="0"
       id="marker7238"
       style="overflow:visible"
       inkscape:isstock="true">
      <path
         id="path7236"
         d="M 0,5.65 V -5.65"
         style="fill:#41d8d6;fill-opacity:1;fill-rule:evenodd;stroke:#0c9896;stroke-width:1pt;stroke-opacity:1"
         transform="scale(0.4)" />
    </marker>
    <marker
       inkscape:stockid="TriangleOutM"
       orient="auto"
       refY="0"
       refX="0"
       id="TriangleOutM"
       style="overflow:visible"
       inkscape:isstock="true">
      <path
         id="path5241"
         d="M 5.77,0 -2.88,5 V -5 Z"
         style="fill:#000000;fill-opacity:1;fill-rule:evenodd;stroke:#000000;stroke-width:1pt;stroke-opacity:1"
         transform="scale(0.4)" />
    </marker>
    <rect
       x="139.78201"
       y="284.57214"
       width="277.66284"
       height="223.74962"
       id="rect4787-7" />
    <rect
       x="139.78201"
       y="284.57214"
       width="378.38995"
       height="259.4938"
       id="rect5042" />
    <rect
       x="139.78201"
       y="284.57214"
       width="277.66284"
       height="223.74962"
       id="rect5044" />
    <rect
       x="139.78201"
       y="284.57214"
       width="277.66284"
       height="223.74962"
       id="rect5068" />
    <rect
       x="139.78201"
       y="284.57214"
       width="277.66284"
       height="223.74962"
       id="rect5070" />
    <rect
       x="139.78201"
       y="284.57214"
       width="397.42447"
       height="241.53795"
       id="rect5094" />
    <rect
       x="139.78201"
       y="284.57214"
       width="277.66284"
       height="223.74962"
       id="rect5096" />
    <rect
       x="139.78201"
       y="284.57214"
       width="397.42447"
       height="241.53795"
       id="rect5660" />
    <rect
       x="139.78201"
       y="284.57214"
       width="277.66284"
       height="223.74962"
       id="rect5662" />
    <rect
       x="139.78201"
       y="284.57214"
       width="397.42447"
       height="241.53795"
       id="rect5686" />
    <rect
       x="139.78201"
       y="284.57214"
       width="277.66284"
       height="223.74962"
       id="rect5688" />
    <rect
       x="139.78201"
       y="284.57214"
       width="397.42447"
       height="241.53795"
       id="rect5712" />
    <rect
       x="139.78201"
       y="284.57214"
       width="277.66284"
       height="223.74962"
       id="rect5714" />
    <rect
       x="139.78201"
       y="284.57214"
       width="397.42447"
       height="241.53795"
       id="rect5738" />
    <rect
       x="139.78201"
       y="284.57214"
       width="277.66284"
       height="223.74962"
       id="rect5740" />
    <rect
       x="139.78201"
       y="284.57214"
       width="277.66284"
       height="223.74962"
       id="rect5044-1" />
    <rect
       x="139.78201"
       y="284.57214"
       width="378.38995"
       height="259.4938"
       id="rect5042-5" />
    <rect
       x="139.78201"
       y="284.57214"
       width="397.42447"
       height="241.53795"
       id="rect5712-5" />
    <rect
       x="139.78201"
       y="284.57214"
       width="277.66284"
       height="223.74962"
       id="rect5714-9" />
    <rect
       x="139.78201"
       y="284.57214"
       width="277.66284"
       height="223.74962"
       id="rect5714-9-6" />
    <rect
       x="139.78201"
       y="284.57214"
       width="397.42447"
       height="241.53795"
       id="rect5712-3" />
    <rect
       x="139.78201"
       y="284.57214"
       width="397.42447"
       height="241.53795"
       id="rect6225" />
    <rect
       x="139.78201"
       y="284.57214"
       width="397.42447"
       height="241.53795"
       id="rect6227" />
    <rect
       x="139.78201"
       y="284.57214"
       width="397.42447"
       height="241.53795"
       id="rect6229" />
    <rect
       x="139.78201"
       y="284.57214"
       width="277.66284"
       height="223.74962"
       id="rect6231" />
    <rect
       x="139.78201"
       y="284.57214"
       width="277.66284"
       height="223.74962"
       id="rect6233" />
    <rect
       x="139.78201"
       y="284.57214"
       width="277.66284"
       height="223.74962"
       id="rect6235" />
  </defs>
  <sodipodi:namedview
     id="base"
     pagecolor="#ffffff"
     bordercolor="#666666"
     borderopacity="1.0"
     inkscape:pageopacity="0.0"
     inkscape:pageshadow="2"
     inkscape:zoom="2.9722328"
     inkscape:cx="134.07429"
     inkscape:cy="133.40139"
     inkscape:document-units="mm"
     inkscape:current-layer="layer1"
     showgrid="false"
     inkscape:window-width="1920"
     inkscape:window-height="1016"
     inkscape:window-x="0"
     inkscape:window-y="27"
     inkscape:window-maximized="1"
     inkscape:showpageshadow="0"
     inkscape:pagecheckerboard="0"
     inkscape:deskcolor="#d1d1d1"
     showguides="true">
    <sodipodi:guide
       position="50.054353,64.04861"
       orientation="1,0"
       id="guide6582"
       inkscape:locked="false" />
    <sodipodi:guide
       position="115.60547,-29.855789"
       orientation="1,0"
       id="guide6584"
       inkscape:locked="false" />
    <sodipodi:guide
       position="87.919463,-62.542349"
       orientation="0,-1"
       id="guide6586"
       inkscape:locked="false" />
    <sodipodi:guide
       position="7.6794154,-0.020709079"
       orientation="0,-1"
       id="guide6588"
       inkscape:locked="false" />
    <sodipodi:guide
       position="-10.729162,20.882772"
       orientation="1,0"
       id="guide743"
       inkscape:locked="false" />
  </sodipodi:namedview>
  <metadata
     id="metadata5">
    <rdf:RDF>
      <cc:Work
         rdf:about="">
        <dc:format>image/svg+xml</dc:format>
        <dc:type
           rdf:resource="http://purl.org/dc/dcmitype/StillImage" />
      </cc:Work>
    </rdf:RDF>
  </metadata>
  <rect
     style="display:inline;fill:#000000;fill-opacity:1;stroke:#000000;stroke-width:1.28856;stroke-linecap:round;stroke-linejoin:miter;stroke-dasharray:none;stroke-dashoffset:77.1024;stroke-opacity:1"
     id="rect6301"
     width="48.711433"
     height="48.711437"
     x="0.64428002"
     y="0.64428002"
     ry="0" />
  <g
     inkscape:groupmode="layer"
     id="g6223"
     inkscape:label="CRYOGRID copy copy copy copy copy copy copy"
     style="display:inline"
     transform="translate(-0.01714212,-0.03114516)">
    <text
       xml:space="preserve"
       transform="matrix(0.26458333,0,0,0.30269675,-24.436721,-80.367883)"
       id="text6201"
       style="font-style:normal;font-variant:normal;font-weight:normal;font-stretch:normal;font-size:80px;line-height:1.25;font-family:'Noto Sans';-inkscape-font-specification:'Noto Sans, Normal';font-variant-ligatures:normal;font-variant-caps:normal;font-variant-numeric:normal;font-variant-east-asian:normal;white-space:pre;shape-inside:url(#rect6225);display:inline;fill:#ffffff;fill-opacity:1;stroke:none"><tspan
         x="139.78125"
         y="357.36228"
         id="tspan1149">R</tspan></text>
    <text
       xml:space="preserve"
       transform="matrix(0.26458333,0,0,0.30269675,-38.264129,-80.61004)"
       id="text6205"
       style="font-style:normal;font-variant:normal;font-weight:normal;font-stretch:normal;font-size:80px;line-height:1.25;font-family:'Noto Sans';-inkscape-font-specification:'Noto Sans, Normal';font-variant-ligatures:normal;font-variant-caps:normal;font-variant-numeric:normal;font-variant-east-asian:normal;white-space:pre;shape-inside:url(#rect6227);display:inline;fill:#ffffff;fill-opacity:1;stroke:none"><tspan
         x="139.78125"
         y="357.36228"
         id="tspan1151">C</tspan></text>
    <text
       xml:space="preserve"
       transform="matrix(0.26458333,0,0,0.30269675,-2.134273,-80.61004)"
       id="text6209"
       style="font-style:normal;font-variant:normal;font-weight:normal;font-stretch:normal;font-size:80px;line-height:1.25;font-family:'Noto Sans';-inkscape-font-specification:'Noto Sans, Normal';font-variant-ligatures:normal;font-variant-caps:normal;font-variant-numeric:normal;font-variant-east-asian:normal;white-space:pre;shape-inside:url(#rect6229);display:inline;fill:#ffffff;fill-opacity:1;stroke:none"><tspan
         x="139.78125"
         y="357.36228"
         id="tspan1153">O</tspan></text>
    <text
       xml:space="preserve"
       transform="matrix(0.30569295,0,0,0.30269675,-9.0013131,-58.123818)"
       id="text6213"
       style="font-style:normal;font-variant:normal;font-weight:normal;font-stretch:normal;font-size:80px;line-height:1.25;font-family:'Noto Sans';-inkscape-font-specification:'Noto Sans, Normal';font-variant-ligatures:normal;font-variant-caps:normal;font-variant-numeric:normal;font-variant-east-asian:normal;white-space:pre;shape-inside:url(#rect6231);display:inline;fill:#ffffff;fill-opacity:1;stroke:none"><tspan
         x="139.78125"
         y="357.36228"
         id="tspan1155">D</tspan></text>
    <text
       xml:space="preserve"
       transform="matrix(0.26458333,0,0,0.30269675,-24.480752,-58.123818)"
       id="text6217"
       style="font-style:normal;font-variant:normal;font-weight:normal;font-stretch:normal;font-size:80px;line-height:1.25;font-family:'Noto Sans';-inkscape-font-specification:'Noto Sans, Normal';font-variant-ligatures:normal;font-variant-caps:normal;font-variant-numeric:normal;font-variant-east-asian:normal;white-space:pre;shape-inside:url(#rect6233);display:inline;fill:#ffffff;fill-opacity:1;stroke:none"><tspan
         x="139.78125"
         y="357.36228"
         id="tspan1157">R</tspan></text>
    <text
       xml:space="preserve"
       transform="matrix(0.24587349,0,0,0.30269675,-35.468522,-58.365976)"
       id="text6221"
       style="font-style:normal;font-variant:normal;font-weight:normal;font-stretch:normal;font-size:80px;line-height:1.25;font-family:'Noto Sans';-inkscape-font-specification:'Noto Sans, Normal';font-variant-ligatures:normal;font-variant-caps:normal;font-variant-numeric:normal;font-variant-east-asian:normal;white-space:pre;shape-inside:url(#rect6235);display:inline;fill:#ffffff;fill-opacity:1;stroke:none"><tspan
         x="139.78125"
         y="357.36228"
         id="tspan1159">G</tspan></text>
  </g>
  <g
     inkscape:label="Transient"
     inkscape:groupmode="layer"
     id="layer1"
     transform="translate(-0.01714212,-87.031146)"
     style="display:inline;opacity:1">
    <g
       id="g4902"
       transform="matrix(1.3172708,0,0,1.3172708,-16.672148,-60.920836)"
       style="display:none">
      <path
         inkscape:connector-curvature="0"
         id="path4683"
         style="fill:none;fill-opacity:1;stroke:#ee3182;stroke-width:1.343;stroke-linecap:round;stroke-linejoin:round;stroke-miterlimit:10;stroke-dasharray:none;stroke-opacity:1"
         d="m 99.899064,162.46644 -0.08927,0.023 -0.08979,0.0231 -0.08926,0.023 -0.08979,0.0231 -0.08927,0.023 -0.08979,0.0231 -0.08927,0.023 -0.08978,0.023 -0.08927,0.0231 -0.08927,0.023 -0.08927,0.0231 -0.08927,0.023 -0.08927,0.0231 -0.08927,0.0231 -0.08876,0.023 -0.08927,0.023 -0.08876,0.023 -0.08876,0.0231 -0.08875,0.0231 -0.08876,0.0231 -0.08876,0.023 -0.08825,0.0231 -0.08876,0.023 -0.08825,0.0231 -0.08825,0.0231 -0.08774,0.023 -0.08825,0.0231 -0.08774,0.0231 -0.08775,0.023 -0.08774,0.023 -0.08722,0.0231 -0.08774,0.023 -0.08723,0.0231 -0.08672,0.023 -0.08723,0.023 -0.08672,0.0231 -0.08672,0.023 -0.08672,0.0231 -0.08621,0.023 -0.08621,0.0231 -0.08621,0.023 -0.0857,0.0231 -0.0857,0.023 -0.0857,0.023 -0.08519,0.0231 -0.0852,0.023 -0.08519,0.0231 -0.08467,0.023 -0.08468,0.0231 -0.08468,0.023 -0.08417,0.0231 -0.08417,0.023 -0.08366,0.023 -0.08371,0.0231 -0.08356,0.0231 -0.08325,0.0231 -0.0831,0.023 -0.08285,0.0231 -0.08269,0.023 -0.08243,0.0231 -0.08228,0.023 -0.08197,0.023 -0.08183,0.0231 -0.08155,0.0231 -0.08139,0.023 -0.08114,0.0231 -0.08089,0.0231 -0.08065,0.023 -0.0804,0.0231 -0.08016,0.023 -0.07999,0.023 -0.07975,0.0231 -0.0795,0.023 -0.07926,0.0231 -0.07893,0.023 -0.07869,0.0231 -0.07852,0.023 -0.0782,0.0231 -0.07803,0.023 -0.07779,0.023 -0.07746,0.0231 -0.07721,0.023 -0.07689,0.0231 -0.07667,0.023 -0.07647,0.0231 -0.07611,0.023 -0.07591,0.0231 -0.0756,0.0231 -0.0754,0.023 -0.07509,0.0231 -0.07479,0.0231 -0.07447,0.0231 -0.07428,0.023 -0.07402,0.0231 -0.07366,0.023 -0.07346,0.0231 -0.07315,0.0231 -0.07285,0.023 -0.07254,0.0231 -0.07228,0.0231 -0.07203,0.023 -0.07167,0.0231 -0.07142,0.0231 -0.07116,0.023 -0.07081,0.0231 -0.07055,0.023 -0.07024,0.0231 -0.06999,0.0231 -0.06968,0.023 -0.06933,0.0231 -0.06907,0.0231 -0.06876,0.023 -0.06851,0.023 -0.06815,0.0231 -0.06785,0.023 -0.06764,0.0231 -0.06723,0.0231 -0.06698,0.023 -0.06662,0.0231 -0.06637,0.023 -0.06607,0.0231 -0.06575,0.023 -0.06539,0.0231 -0.06514,0.023 -0.06483,0.0231 -0.06453,0.023 -0.06418,0.023 -0.06392,0.0231 -0.06356,0.023 -0.06331,0.0231 -0.06295,0.023 -0.06265,0.0231 -0.06234,0.023 -0.06203,0.023 -0.06173,0.0231 -0.06136,0.023 -0.06111,0.0231 -0.06076,0.0231 -0.06045,0.0231 -0.06014,0.023 -0.05984,0.0231 -0.05948,0.023 -0.05923,0.0231 -0.05882,0.0231 -0.05861,0.023 -0.0582,0.0231 -0.05795,0.0231 -0.05759,0.023 -0.05734,0.023 -0.05693,0.0231 -0.05667,0.023 -0.05631,0.0231 -0.05606,0.0231 -0.05565,0.023 -0.0554,0.0231 -0.0551,0.023 -0.05473,0.0231 -0.05443,0.0231 -0.05412,0.0231 -0.05382,0.023 -0.05346,0.0231 -0.05315,0.0231 -0.05285,0.023 -0.0525,0.0231 -0.05223,0.023 -0.05188,0.0231 -0.05157,0.023 -0.05127,0.0231 -0.05091,0.023 -0.05066,0.023 -0.05029,0.0231 -0.04999,0.023 -0.04968,0.0231 -0.04933,0.0231 -0.04907,0.0231 -0.04867,0.023 -0.04846,0.0231 -0.04805,0.023 -0.0478,0.0231 -0.04744,0.0231 -0.04714,0.023 -0.04688,0.0231 -0.04653,0.0231 -0.04621,0.023 -0.04591,0.0231 -0.04555,0.023 -0.0453,0.023 -0.04494,0.0231 -0.04463,0.0231 -0.04438,0.023 -0.04402,0.0231 -0.04366,0.023 -0.04341,0.0231 -0.0431,0.023 -0.04279,0.0231 -0.04249,0.023 -0.04219,0.0231 -0.04183,0.023 -0.04158,0.0231 -0.04126,0.0231 -0.04096,0.023 -0.0406,0.0231 -0.04035,0.023 -0.04004,0.0231 -0.03974,0.023 -0.03948,0.023 -0.03907,0.0231 -0.03882,0.023 -0.03851,0.0231 -0.03826,0.023 -0.03795,0.0231 -0.0376,0.023 -0.03734,0.0231 -0.03704,0.023 -0.03672,0.0231 -0.03642,0.0231 -0.03617,0.023 -0.03581,0.0231 -0.03556,0.0231 -0.03529,0.023 -0.03494,0.0231 -0.03469,0.023 -0.03438,0.0231 -0.03408,0.0231 -0.03382,0.0231 -0.03352,0.023 -0.03321,0.0231 -0.03296,0.023 -0.03265,0.0231 -0.03234,0.0231 -0.03209,0.023 -0.03183,0.023 -0.03147,0.0231 -0.03127,0.023 -0.03097,0.0231 -0.03061,0.0231 -0.0304,0.023 -0.0301,0.0231 -0.02984,0.023 -0.02954,0.0231 -0.02927,0.023 -0.02898,0.023 -0.02872,0.0231 -0.02846,0.0231 -0.02816,0.023 -0.02785,0.023 -0.02765,0.0231 -0.02734,0.023 -0.02709,0.0231 -0.02684,0.023 -0.02652,0.023 -0.02633,0.0231 -0.026,0.023 -0.02571,0.0231 -0.02547,0.023 -0.0252,0.0231 -0.02499,0.0231 -0.02469,0.023 -0.02445,0.023 -0.02418,0.0231 -0.02388,0.0231 -0.02367,0.023 -0.02343,0.0231 -0.02311,0.023 -0.02292,0.0231 -0.02259,0.0231 -0.0224,0.023 -0.02213,0.023 -0.02184,0.0231 -0.02163,0.023 -0.02138,0.0231 -0.02112,0.0231 -0.02083,0.023 -0.02066,0.0231 -0.02039,0.023 -0.0201,0.0231 -0.01988,0.0231 -0.0197,0.023 -0.01939,0.0231 -0.01913,0.0231 -0.01891,0.0231 -0.01867,0.023 -0.0184,0.0231 -0.01822,0.023 -0.018,0.0231 -0.01776,0.023 -0.01749,0.023 -0.01725,0.0231 -0.01703,0.023 -0.01684,0.0231 -0.01652,0.023 -0.01639,0.0231 -0.01612,0.0231 -0.01585,0.023 -0.01566,0.0231 -0.01545,0.023 -0.0152,0.0231 -0.01499,0.023 -0.01475,0.0231 -0.01459,0.023 -0.01432,0.0231 -0.01408,0.0231 -0.01391,0.023 -0.01368,0.0231 -0.01341,0.023 -0.01327,0.023 -0.01305,0.0231 -0.01279,0.0231 -0.0126,0.023 -0.01238,0.0231 -0.01215,0.023 -0.01198,0.0231 -0.0118,0.023 -0.01152,0.023 -0.01139,0.0231 -0.01112,0.0231 -0.01096,0.023 -0.01077,0.0231 -0.0105,0.0231 -0.01034,0.023 -0.01016,0.0231 -0.0099,0.023 -0.0097,0.023 -0.0095,0.0231 -0.0093,0.023 -0.0092,0.0231 -0.0089,0.023 -0.0088,0.0231 -0.0086,0.023 -0.0084,0.0231 -0.0082,0.0231 -0.008,0.023 -0.0079,0.0231 -0.0077,0.023 -0.0074,0.0231 -0.0073,0.023 -0.0071,0.0231 -0.0069,0.023 -0.0067,0.0231 -0.0065,0.0231 -0.0063,0.023 -0.0062,0.0231 -0.0061,0.0231 -0.0059,0.0231 -0.0056,0.023 -0.0055,0.0231 -0.0052,0.023 -0.0052,0.0231 -0.0049,0.0231 -0.0048,0.023 -0.0047,0.0231 -0.0044,0.0231 -0.0043,0.023 -0.0042,0.0231 -0.0039,0.0231 -0.0038,0.023 -0.0037,0.0231 -0.0034,0.023 -0.0033,0.023 -0.0032,0.0231 -0.0029,0.023 -0.0029,0.0231 -0.0027,0.0231 -0.0027,0.023 -0.0025,0.023 -0.0021,0.0231 -0.0021,0.0231 -0.0019,0.023 -0.0019,0.0231 -0.0016,0.023 -0.0013,0.0231 -0.0013,0.023 -0.0011,0.0231 -0.0011,0.023 -8.07e-4,0.0231 -8.05e-4,0.0231 -5.38e-4,0.023 -5.37e-4,0.023 -2.68e-4,0.0231 -1.43e-4,0.0231 v 0.023 l 1.43e-4,0.0231 2.68e-4,0.023 5.37e-4,0.0231 5.38e-4,0.0231 8.05e-4,0.023 8.07e-4,0.0231 0.0011,0.0231 0.0011,0.023 0.0011,0.0231 0.0013,0.0231 0.0013,0.023 0.0016,0.0231 0.0016,0.023 0.0019,0.0231 0.0019,0.0231 0.0021,0.023 0.0021,0.0231 0.0025,0.0231 0.0025,0.0231 0.0027,0.023 0.0027,0.0231 0.0029,0.023 0.0029,0.0231 0.003,0.0231 0.0033,0.023 0.0033,0.0231 0.0034,0.023 0.0036,0.0231 0.0037,0.023 0.0038,0.0231 0.0039,0.0231 0.004,0.023 0.0041,0.0231 0.0043,0.023 0.0043,0.0231 0.0045,0.023 0.0046,0.0231 0.0047,0.023 0.0047,0.0231 0.0049,0.0231 0.0049,0.023 0.0051,0.0231 0.0052,0.023 0.0052,0.023 0.0053,0.0231 0.0055,0.0231 0.0056,0.023 0.0056,0.0231 0.0058,0.023 0.0059,0.0231 0.0059,0.0231 0.0061,0.023 0.0062,0.0231 0.0062,0.0231 0.0063,0.023 0.0065,0.0231 0.0065,0.023 0.0066,0.023 0.0067,0.0231 0.0068,0.0231 0.007,0.023 0.007,0.0231 0.007,0.023 0.0072,0.0231 0.0072,0.023 0.0074,0.0231 0.0074,0.023 0.0075,0.0231 0.0075,0.0231 0.0077,0.023 0.0078,0.0231 0.0079,0.023 0.0079,0.0231 0.008,0.023 0.0081,0.0231 0.0081,0.023 0.0082,0.023 0.0083,0.0231 0.0084,0.023 0.0084,0.0231 0.0085,0.0231 0.0086,0.0231 0.0087,0.023 0.0087,0.0231 0.0088,0.023 0.0088,0.0231 0.0089,0.0231 0.009,0.023 0.0091,0.0231 0.0091,0.0231 0.0092,0.023 0.0093,0.0231 0.0093,0.0231 0.0094,0.023 0.0095,0.0231 0.0095,0.0231 0.0096,0.023 0.0096,0.0231 0.0097,0.023 0.0098,0.0231 0.0099,0.0231 0.0098,0.023 0.0099,0.023 0.01004,0.0231 0.01004,0.0231 0.0101,0.023 0.01021,0.0231 0.01027,0.023 0.01027,0.0231 0.01034,0.023 0.01042,0.0231 0.01045,0.023 0.0105,0.023 0.01056,0.0231 0.01061,0.023 0.01067,0.023 0.01071,0.0231 0.01075,0.0231 0.01083,0.023 0.01085,0.0231 0.0109,0.023 0.01091,0.023 0.01102,0.0231 0.01107,0.023 0.01112,0.0231 0.01112,0.0231 0.01117,0.023 0.01123,0.0231 0.01128,0.023 0.01139,0.023 0.01131,0.0231 0.01142,0.0231 0.01142,0.023 0.01148,0.0231 0.01158,0.023 0.01153,0.0231 0.01163,0.0231 0.01163,0.023 0.01171,0.023 0.01169,0.0231 0.0118,0.023 0.01179,0.0231 0.01182,0.0231 0.01188,0.023 0.01188,0.0231 0.01193,0.023 0.01198,0.0231 0.01203,0.023 0.01204,0.023 0.01209,0.0231 0.01209,0.0231 0.01215,0.0231 0.01225,0.023 0.0122,0.0231 0.01225,0.023 0.0123,0.0231 0.01225,0.023 0.01236,0.0231 0.01236,0.0231 0.01238,0.023 0.01246,0.0231 0.01244,0.023 0.01244,0.0231 0.01249,0.0231 0.01249,0.0231 0.0126,0.023 0.01255,0.023 0.01265,0.0231 0.0126,0.023 0.01265,0.0231 0.0127,0.023 0.01271,0.0231 0.01276,0.0231 0.0127,0.023 0.01278,0.0231 0.01276,0.023 0.01284,0.023 0.01278,0.0231 0.01284,0.0231 0.01284,0.023 0.0129,0.0231 0.01295,0.023 0.0129,0.0231 0.01295,0.023 0.01295,0.023 0.013,0.0231 0.01301,0.0231 0.01305,0.0231 0.01301,0.023 0.01305,0.0231 0.01311,0.023 0.01305,0.0231 0.01316,0.023 0.01311,0.023 0.01311,0.0231 0.01316,0.023 0.01316,0.0231 0.01322,0.023 0.01316,0.0231 0.01322,0.0231 0.01322,0.0231 0.01328,0.023 0.01327,0.023 0.01322,0.0231 0.01327,0.023 0.01332,0.0231 0.01333,0.023 0.01332,0.0231 0.01332,0.0231 0.01332,0.023 0.01333,0.0231 0.01332,0.0231 0.01335,0.023 0.01335,0.0231 0.01343,0.0231 0.01335,0.023 0.01341,0.0231 0.01335,0.023 0.01341,0.0231 0.01341,0.0231 0.01335,0.023 0.01341,0.0231 0.01346,0.0231 0.01343,0.0231 0.01346,0.023 0.01341,0.0231 0.01346,0.023 0.01346,0.0231 0.01346,0.023 0.01351,0.023 0.01341,0.0231 0.01346,0.023 0.01351,0.0231 0.01346,0.023 0.01351,0.023 0.01346,0.0231 0.01351,0.0231 0.01346,0.023 0.01345,0.023 0.01351,0.0231 0.01351,0.023 0.01351,0.0231 0.01345,0.023 0.01351,0.0231 0.01351,0.0231 0.01351,0.023 0.01346,0.0231 0.01351,0.023 0.01351,0.023 0.01351,0.0231 0.01351,0.0231 0.01351,0.023 0.01346,0.0231 0.01351,0.023 0.01351,0.0231 0.01351,0.0231 0.01346,0.023 0.01351,0.0231 0.01351,0.0231 0.01345,0.023 0.01351,0.0231 0.01346,0.0231 0.01351,0.023 0.01345,0.0231 0.01346,0.023 0.01351,0.023 0.01346,0.0231 0.01345,0.023 0.01346,0.0231 0.01346,0.0231 0.01346,0.0231 0.01346,0.023 0.01341,0.0231 0.01346,0.023 0.01346,0.023 0.01343,0.0231 0.01345,0.023 0.01335,0.0231 0.01346,0.023 0.01341,0.0231 0.01341,0.023 0.01341,0.0231 0.01335,0.0231 0.01341,0.023 0.01335,0.0231 0.01341,0.023 0.01335,0.0231 0.01335,0.023 0.01335,0.0231 0.01333,0.023 0.01335,0.0231 0.01335,0.0231 0.01332,0.023 0.01332,0.0231 0.01332,0.023 0.01332,0.023 0.01332,0.0231 0.01332,0.0231 0.01328,0.023 0.01327,0.0231 0.01332,0.023 0.01322,0.023 0.01327,0.0231 0.01327,0.023 0.01322,0.0231 0.01322,0.0231 0.01324,0.0231 0.01316,0.023 0.01322,0.0231 0.01322,0.023 0.01316,0.023 0.01316,0.0231 0.01316,0.023 0.01316,0.0231 0.01311,0.023 0.01316,0.0231 0.01305,0.023 0.01316,0.0231 0.01305,0.0231 0.01311,0.023 0.01305,0.0231 0.01311,0.023 0.013,0.0231 0.01305,0.023 0.01306,0.0231 0.013,0.023 0.01305,0.0231 0.01295,0.0231 0.01301,0.023 0.01295,0.0231 0.01301,0.023 0.01295,0.023 0.01295,0.0231 0.01292,0.0231 0.0129,0.023 0.01295,0.0231 0.01287,0.023 0.01295,0.0231 0.01287,0.0231 0.01284,0.023 0.01287,0.0231 0.01287,0.0231 0.01278,0.023 0.01279,0.0231 0.01284,0.0231 0.01276,0.023 0.01278,0.0231 0.01276,0.0231 0.01276,0.023 0.01276,0.0231 0.01271,0.023 0.01276,0.0231 0.01268,0.023 0.01271,0.023 0.01265,0.023 0.01268,0.0231 0.01265,0.0231 0.01265,0.023 0.0126,0.0231 0.01265,0.023 0.0126,0.0231 0.0126,0.023 0.0126,0.0231 0.01255,0.0231 0.01255,0.023 0.01249,0.0231 0.01255,0.023 0.01249,0.023 0.01249,0.0231 0.01249,0.0231 0.01244,0.023 0.01249,0.0231 0.01238,0.023 0.01244,0.023 0.01244,0.0231 0.01238,0.023 0.01238,0.0231 0.01238,0.0231 0.01236,0.023 0.01238,0.0231 0.01236,0.0231 0.01236,0.023 0.01225,0.0231 0.01236,0.0231 0.01225,0.023 0.01228,0.0231 0.01225,0.023 0.01225,0.0231 0.01225,0.0231 0.0122,0.0231 0.01225,0.023 0.01219,0.0231 0.01215,0.0231 0.0122,0.023 0.01215,0.0231 0.01215,0.023 0.01215,0.0231 0.01209,0.023 0.01209,0.0231 0.01209,0.023 0.01204,0.023 0.01203,0.0231 0.01209,0.023 0.01198,0.0231 0.01203,0.023 0.01198,0.0231 0.01198,0.023 0.01193,0.0231 0.01198,0.023 0.01193,0.0231 0.01196,0.0231 0.01192,0.023 0.01188,0.0231 0.01188,0.023 0.0119,0.023 0.01185,0.0231 0.01188,0.0231 0.01179,0.023 0.01182,0.023 0.01182,0.0231 0.01179,0.023 0.01179,0.0231 0.01171,0.023 0.0118,0.0231 0.01169,0.0231 0.01179,0.0231 0.01169,0.023 0.01174,0.023 0.01163,0.0231 0.01169,0.023 0.01169,0.0231 0.01163,0.023 0.01163,0.0231 0.01163,0.023 0.01158,0.0231 0.01163,0.023 0.01153,0.023 0.01158,0.0231 0.01153,0.023 0.01152,0.0231 0.01152,0.023 0.01152,0.0231 0.01148,0.023 0.01147,0.0231 0.01148,0.023 0.01142,0.0231 0.01152,0.0231 0.01139,0.023 0.01142,0.0231 0.01142,0.023 0.01131,0.023 0.01142,0.0231 0.01139,0.0231 0.01131,0.023 0.01134,0.0231 0.01131,0.0231 0.01131,0.023 0.01131,0.0231 0.01123,0.023 0.01129,0.0231 0.01129,0.0231 0.01123,0.023 0.01129,0.0231 0.01123,0.0231 0.01123,0.023 0.01117,0.0231 0.01117,0.0231 0.01117,0.023 0.01112,0.0231 0.01117,0.023 0.01112,0.0231 0.01112,0.0231 0.01112,0.023 0.01112,0.0231 0.01107,0.0231 0.01102,0.0231 0.01112,0.023 0.01102,0.0231 0.01102,0.023 0.01107,0.0231 0.01096,0.023 0.01102,0.0231 0.01096,0.0231 0.0109,0.023 0.01102,0.0231 0.0109,0.023 0.01098,0.023 0.01091,0.0231 0.01088,0.0231 0.0109,0.023 0.0109,0.0231 0.01088,0.0231 0.01085,0.023 0.01083,0.0231 0.01085,0.023 0.01083,0.0231 0.01083,0.0231 0.01083,0.023 0.01083,0.0231 0.01075,0.0231 0.01077,0.023 0.01075,0.0231 0.01072,0.0231 0.01075,0.023 0.01072,0.0231 0.01072,0.023 0.01071,0.0231 0.01067,0.0231 0.01072,0.023 0.01067,0.0231 0.01061,0.0231 0.01071,0.0231 0.01061,0.023 0.01061,0.0231 0.01061,0.023 0.01061,0.0231 0.01056,0.023 0.01061,0.023 0.01056,0.0231 0.01056,0.023 0.01056,0.0231 0.0105,0.023 0.0105,0.0231 0.01056,0.023 0.0105,0.0231 0.01045,0.023 0.0105,0.023 0.01045,0.0231 0.01045,0.023 0.01045,0.0231 0.0104,0.023 0.01045,0.0231 0.0104,0.023 0.0104,0.023 0.01042,0.0231 0.01045,0.023 0.01035,0.0231 0.01035,0.023 0.01035,0.0231 0.01035,0.023 0.01035,0.0231 0.01031,0.023 0.01031,0.0231 0.01031,0.0231 0.01031,0.023 0.01031,0.0231 0.01031,0.023 0.01026,0.023 0.01031,0.0231 0.01027,0.0231 0.01018,0.023 0.01027,0.0231 0.01021,0.023 0.01018,0.023 0.01027,0.0231 0.01016,0.023 0.01021,0.0231 0.01021,0.023 0.01021,0.0231 0.0101,0.023 0.01021,0.0231 0.0101,0.023 0.01016,0.023 0.0101,0.0231 0.01016,0.023 0.0101,0.0231 0.0101,0.023 0.0101,0.0231 0.01004,0.023 0.01004,0.023 0.0101,0.0231 0.01004,0.023 0.01005,0.0231 0.01004,0.0231 0.01,0.0231 0.01005,0.023 0.01,0.0231 0.01004,0.023 0.0099,0.0231 0.01,0.0231 0.01,0.023 0.0099,0.0231 0.0099,0.0231 0.01002,0.023 0.0099,0.0231 0.0099,0.0231 0.0099,0.023 0.0099,0.0231 0.0099,0.023 0.0099,0.023 0.0099,0.0231 0.0099,0.023 0.0099,0.0231 0.0099,0.0231 0.0099,0.0231 0.0099,0.023 0.0099,0.0231 0.0099,0.023 0.0098,0.023 0.0099,0.0231 0.0099,0.023 0.0098,0.0231 0.0098,0.023 0.0098,0.0231 0.0098,0.023 0.0098,0.023 0.0098,0.0231 0.0098,0.023 0.0098,0.0231 0.0097,0.0231 0.0098,0.0231 0.0097,0.023 0.0097,0.0231 0.0097,0.023 0.0098,0.0231 0.0097,0.0231 0.0097,0.023 0.0097,0.0231 0.0097,0.0231 0.0097,0.023 0.0097,0.023 0.0097,0.0231 0.0097,0.023 0.0097,0.0231 0.0096,0.023 0.0096,0.023 0.0097,0.0231 0.0096,0.023 0.0096,0.0231 0.0096,0.0231 0.0096,0.0231 0.0096,0.023 0.0096,0.0231 0.0096,0.023 0.0096,0.023 0.0096,0.0231 0.0096,0.023 0.0096,0.0231 0.0095,0.023 0.0096,0.0231 0.0095,0.023 0.0096,0.0231 0.0095,0.023 0.0096,0.023 0.0095,0.0231 0.0096,0.023 0.0095,0.0231 0.0095,0.023 0.0095,0.0231 0.0095,0.023 0.0095,0.0231 0.0095,0.023 0.0095,0.023 0.0095,0.0231 0.0095,0.023 0.0095,0.0231 0.0095,0.023 0.0095,0.0231 0.0095,0.023 0.0095,0.0231 0.0094,0.023 0.0095,0.0231 0.0094,0.0231 0.0094,0.023 0.0094,0.0231 0.0095,0.023 0.0094,0.023 0.0094,0.0231 0.0095,0.0231 0.0094,0.023 0.0094,0.023 0.0094,0.0231 0.0094,0.023 0.0094,0.0231 0.0094,0.023 0.0094,0.0231 0.0094,0.0231 0.0094,0.0231 0.0094,0.023 0.0093,0.023 0.0094,0.0231 0.0094,0.023 0.0094,0.0231 0.0094,0.023 0.0093,0.0231 0.0094,0.023 0.0094,0.0231 0.0093,0.023 0.0093,0.023 0.0093,0.0231 0.0094,0.023 0.0093,0.0231 0.0093,0.0231 0.0093,0.0231 0.0093,0.023 0.0093,0.0231 0.0093,0.023 0.0093,0.0231 0.0093,0.0231 0.0093,0.023 0.0093,0.0231 0.0093,0.0231 0.0093,0.023 0.0093,0.0231 0.0093,0.0231 0.0093,0.023 0.0093,0.0231 0.0092,0.0231 0.0093,0.023 0.0093,0.0231 0.0092,0.023 0.0093,0.0231 0.0093,0.0231 0.0093,0.0231 0.0092,0.023 0.0092,0.0231 0.0092,0.023 0.0093,0.023 0.0092,0.0231 0.0092,0.023 0.0092,0.0231 0.0092,0.023 0.0093,0.0231 0.0092,0.023 0.0092,0.023 0.0092,0.0231 0.0092,0.023 0.0092,0.0231 0.0092,0.023 0.0092,0.0231 0.0092,0.023 0.0092,0.0231 0.0091,0.023 0.0092,0.0231 0.0092,0.0231 0.0092,0.023 0.0092,0.0231 0.0092,0.023 0.0092,0.0231 0.0092,0.023 0.0092,0.0231 0.0092,0.023 0.0091,0.0231 0.0092,0.0231 0.0092,0.023 0.0092,0.0231 0.0092,0.023 0.0092,0.0231 0.0092,0.0231 0.0091,0.0231 0.0092,0.023 0.0091,0.0231 0.0092,0.023 0.0092,0.023 0.0092,0.0231 0.0091,0.023 0.0091,0.0231 0.0091,0.023 0.0092,0.0231 0.0092,0.023 0.0091,0.023 0.0091,0.0231 0.0091,0.023 0.0092,0.0231 0.0091,0.023 0.0091,0.0231 0.0091,0.023 0.0092,0.0231 0.0091,0.023 0.0091,0.0231 0.0091,0.0231 0.0091,0.023 0.0091,0.0231 0.0091,0.023 0.0091,0.0231 0.0091,0.023 0.0091,0.0231 0.0091,0.023 0.0092,0.0231 0.0091,0.0231 0.0091,0.023 0.0091,0.0231 0.0091,0.023 0.0091,0.0231 0.0091,0.023 0.0091,0.023 0.0091,0.0231 0.0091,0.0231 0.0091,0.023 0.0091,0.023 0.0091,0.0231 0.0091,0.023 0.0091,0.0231 0.0091,0.023 0.0091,0.0231 0.0091,0.0231 0.0091,0.023 0.0091,0.0231 0.0091,0.023 0.0091,0.0231 0.0091,0.023 0.0091,0.0231 0.0091,0.023 0.009,0.0231 0.0091,0.023 0.0091,0.023 0.0091,0.0231 0.0091,0.023 0.0091,0.0231 0.0091,0.023 0.0091,0.0231 0.0091,0.0231 0.0091,0.0231 0.0091,0.023 0.0091,0.0231 0.0091,0.0231 0.0091,0.023 0.0091,0.0231 0.0091,0.023 0.0091,0.0231 0.0091,0.0231 0.009,0.023 0.0091,0.0231 0.0091,0.0231 0.0091,0.023 0.009,0.0231 0.0091,0.0231 0.0091,0.023 0.009,0.0231 0.0091,0.023 0.0091,0.0231 0.009,0.0231 0.009,0.023 0.0091,0.0231 0.0091,0.0231 0.0091,0.023 0.009,0.023 0.0091,0.0231 0.0091,0.023 0.0091,0.0231 0.0091,0.023 0.009,0.023 0.009,0.0231 0.0091,0.023 0.0091,0.0231 0.0091,0.023 0.009,0.0231 0.0091,0.023 0.009,0.0231 0.0091,0.023 0.009,0.023 0.0091,0.0231 0.0091,0.023 0.009,0.0231 0.0091,0.023 0.009,0.0231 0.0091,0.023 0.009,0.0231 0.0091,0.023 0.0091,0.023 0.009,0.0231 0.0091,0.0231 0.009,0.0231 0.0091,0.023 0.009,0.0231 0.0091,0.023 0.009,0.0231 0.009,0.0231 0.0091,0.023 0.0091,0.0231 0.009,0.0231 0.0091,0.023 0.0091,0.023 0.009,0.0231 0.009,0.023 0.0091,0.0231 0.009,0.023 0.0091,0.023 0.0091,0.0231 0.009,0.023 0.009,0.0231 0.0091,0.0231 0.009,0.0231 0.0091,0.023 0.009,0.0231 0.0091,0.023 0.009,0.023 0.0091,0.0231 0.0091,0.023 0.009,0.0231 0.0091,0.023 0.009,0.0231 0.009,0.023 0.0091,0.0231 0.0091,0.023 0.0091,0.023 0.009,0.0231 0.0091,0.0231 0.0091,0.0231 0.009,0.023 0.0091,0.0231 0.0091,0.023 0.009,0.0231 0.009,0.023 0.0091,0.023 0.0091,0.0231 0.0091,0.0231 0.009,0.023 0.009,0.023 0.0091,0.0231 0.0091,0.023 0.0091,0.0231 0.009,0.023 0.009,0.0231 0.0091,0.0231 0.0091,0.023 0.009,0.0231 0.009,0.023 0.0091,0.023 0.0091,0.0231 0.0091,0.0231 0.0091,0.023 0.009,0.0231 0.0091,0.0231 0.0091,0.023 0.0091,0.0231 0.009,0.023 0.009,0.0231 0.0091,0.0231 0.0091,0.023 0.0091,0.023 0.009,0.023 0.0091,0.023 0.0091,0.0231 0.009,0.0231 0.0091,0.023 0.0091,0.0231 0.0091,0.023 0.009,0.0231 0.0091,0.023 0.0091,0.023 0.0091,0.0231 0.009,0.0231 0.0091,0.023 0.0091,0.023 0.0091,0.0231 0.009,0.023 0.0091,0.0231 0.0091,0.023 0.0091,0.023 0.009,0.0231 0.0091,0.023 0.0091,0.0231 0.009,0.023 0.0091,0.023 0.0091,0.0231 0.0091,0.0231 0.0091,0.023 0.0091,0.023 0.0091,0.0231 0.0091,0.023 0.0091,0.0231 0.0091,0.023 0.0091,0.0231 0.0091,0.0231 0.0091,0.023 0.0091,0.023 0.0091,0.0231 0.0091,0.023 0.0091,0.0231 0.0091,0.0231 0.0091,0.023 0.0091,0.0231 0.0091,0.023 0.009,0.0231 0.0091,0.023 0.0091,0.023 0.0091,0.0231 0.0091,0.0231 0.0091,0.023 0.0091,0.023 0.0091,0.0231 0.0091,0.023 0.0091,0.0231 0.0091,0.023 0.0091,0.023 0.0091,0.0231 0.0091,0.023 0.0091,0.0231 0.009,0.023 0.0091,0.0231 0.0091,0.023 0.0091,0.0231 0.0091,0.023 0.0091,0.023 0.0092,0.0231 0.009,0.023 0.0092,0.0231 0.0091,0.023 0.0092,0.0231 0.0091,0.0231 0.0092,0.023 0.0091,0.023 0.0091,0.023 0.0091,0.0231 0.0092,0.023 0.0092,0.0231 0.0091,0.023 0.0091,0.0231 0.0092,0.023 0.0091,0.0231 0.0092,0.023 0.0091,0.023 0.0092,0.0231 0.0091,0.0231 0.0092,0.023 0.0092,0.023 0.0092,0.0231 0.0091,0.023 0.0092,0.0231 0.0091,0.023 0.0092,0.023 0.0091,0.0231 0.0092,0.023 0.0091,0.0231 0.0091,0.023 0.0092,0.0231 0.0092,0.023 0.0092,0.0231 0.0091,0.023 0.0092,0.023 0.0092,0.0231 0.0092,0.023 0.0091,0.0231 0.0092,0.023 0.0092,0.0231 0.0092,0.023 0.0092,0.0231 0.0091,0.023 0.0092,0.023 0.0092,0.0231 0.0092,0.023 0.0091,0.0231 0.0092,0.023 0.0091,0.0231 0.0092,0.023 0.0092,0.0231 0.0091,0.023 0.0092,0.023 0.0091,0.0231 0.0092,0.023 0.0092,0.023 0.0091,0.023 0.0092,0.0231 0.0092,0.023 0.0092,0.0231 0.0092,0.023 0.0092,0.023 0.0092,0.0231 0.0091,0.023 0.0092,0.0231 0.0092,0.023 0.0092,0.0231 0.0092,0.023 0.0092,0.0231 0.0092,0.023 0.0092,0.023 0.0092,0.0231 0.0092,0.023 0.0092,0.0231 0.0092,0.023 0.0092,0.0231 0.0092,0.023 0.0092,0.023 0.0092,0.023 0.0092,0.023 0.0092,0.0231 0.0092,0.023 0.0092,0.0231 0.0092,0.023 0.0092,0.0231 0.0092,0.023 0.0092,0.0231 0.0092,0.023 0.0092,0.023 0.0092,0.0231 0.0092,0.023 0.0092,0.023 0.0092,0.023 0.0092,0.0231 0.0092,0.023 0.0092,0.0231 0.0092,0.023 0.0092,0.023 0.0092,0.0231 0.0092,0.023 0.0092,0.0231 0.0092,0.023 0.0092,0.023 0.0092,0.0231 0.0092,0.0231 0.0092,0.023 0.0092,0.023 0.0092,0.0231 0.0092,0.023 0.0092,0.0231 0.0092,0.023 0.0092,0.0231 0.0092,0.023 0.0092,0.023 0.0092,0.023 0.0092,0.023 0.0092,0.0231 0.0092,0.023 0.0092,0.0231 0.0092,0.023 0.0092,0.0231 0.0092,0.023 0.0092,0.0231" />
      <path
         inkscape:connector-curvature="0"
         id="path4685"
         style="fill:none;fill-opacity:1;stroke:#3850ec;stroke-width:1.34326;stroke-linecap:round;stroke-linejoin:round;stroke-miterlimit:10;stroke-dasharray:none;stroke-opacity:1"
         d="m 60.302037,162.46644 0.108858,0.023 0.108912,0.0231 0.108857,0.023 0.108809,0.0231 0.108808,0.023 0.108809,0.0231 0.108706,0.023 0.108706,0.023 0.108654,0.0231 0.108553,0.023 0.108554,0.0231 0.108502,0.023 0.108451,0.0231 0.108349,0.0231 0.108246,0.023 0.108197,0.023 0.108094,0.023 0.108042,0.0231 0.107993,0.0231 0.107839,0.0231 0.107787,0.023 0.107686,0.0231 0.107534,0.023 0.107481,0.0231 0.107277,0.0231 0.107227,0.023 0.107124,0.0231 0.106973,0.0231 0.106817,0.023 0.106769,0.023 0.106563,0.0231 0.106462,0.023 0.106309,0.0231 0.106155,0.023 0.106053,0.023 0.105851,0.0231 0.105695,0.023 0.105594,0.0231 0.10534,0.023 0.105237,0.0231 0.105084,0.023 0.10488,0.0231 0.104729,0.023 0.104523,0.023 0.104369,0.0231 0.104165,0.023 0.104065,0.0231 0.103758,0.023 0.103604,0.0231 0.103452,0.023 0.103249,0.0231 0.103044,0.023 0.10284,0.023 0.102583,0.0231 0.102432,0.0231 0.102228,0.0231 0.101972,0.023 0.101769,0.0231 0.101614,0.023 0.10131,0.0231 0.101107,0.023 0.1009,0.023 0.100697,0.0231 0.100442,0.0231 0.100187,0.023 0.100035,0.0231 0.09973,0.0231 0.09952,0.023 0.09927,0.0231 0.09901,0.023 0.09876,0.023 0.09856,0.0231 0.0983,0.023 0.09804,0.0231 0.09779,0.023 0.09753,0.0231 0.09733,0.023 0.09702,0.0231 0.09672,0.023 0.09651,0.023 0.09626,0.0231 0.096,0.023 0.09565,0.0231 0.09544,0.023 0.09519,0.0231 0.09493,0.023 0.09463,0.0231 0.09437,0.0231 0.09407,0.023 0.09381,0.0231 0.0935,0.0231 0.09325,0.0231 0.09305,0.023 0.09264,0.0231 0.09238,0.023 0.09213,0.0231 0.09182,0.0231 0.09157,0.023 0.09126,0.0231 0.09095,0.0231 0.0907,0.023 0.09039,0.0231 0.09009,0.0231 0.08978,0.023 0.08953,0.0231 0.08917,0.023 0.08892,0.0231 0.08861,0.0231 0.0883,0.023 0.08805,0.0231 0.08769,0.0231 0.08738,0.023 0.08713,0.023 0.08677,0.0231 0.08652,0.023 0.08616,0.0231 0.0859,0.0231 0.0856,0.023 0.08524,0.0231 0.08493,0.023 0.08468,0.0231 0.08432,0.023 0.08402,0.0231 0.08371,0.023 0.0834,0.0231 0.0831,0.023 0.08279,0.023 0.08244,0.0231 0.08218,0.023 0.08182,0.0231 0.08152,0.023 0.08121,0.0231 0.0809,0.023 0.08054,0.023 0.08029,0.0231 0.07994,0.023 0.07963,0.0231 0.07928,0.0231 0.07901,0.0231 0.07866,0.023 0.07835,0.0231 0.07805,0.023 0.07769,0.0231 0.07738,0.0231 0.07708,0.023 0.07672,0.0231 0.07647,0.0231 0.07611,0.023 0.07581,0.023 0.07545,0.0231 0.07519,0.023 0.07483,0.0231 0.07447,0.0231 0.07417,0.023 0.07387,0.0231 0.07362,0.023 0.07321,0.0231 0.0729,0.0231 0.07264,0.0231 0.07223,0.023 0.07193,0.0231 0.07162,0.0231 0.07132,0.023 0.07096,0.0231 0.0707,0.023 0.07034,0.0231 0.07004,0.023 0.06968,0.0231 0.06943,0.023 0.06902,0.023 0.06876,0.0231 0.06846,0.023 0.0681,0.0231 0.06779,0.0231 0.06744,0.0231 0.06718,0.023 0.06683,0.0231 0.06652,0.023 0.06621,0.0231 0.06591,0.0231 0.06555,0.023 0.06525,0.0231 0.06494,0.0231 0.06463,0.023 0.06433,0.0231 0.06396,0.023 0.06367,0.023 0.06341,0.0231 0.06305,0.0231 0.06274,0.023 0.06244,0.0231 0.06208,0.023 0.06183,0.0231 0.06147,0.023 0.06117,0.0231 0.06085,0.023 0.0606,0.0231 0.06029,0.023 0.05989,0.0231 0.05964,0.0231 0.05937,0.023 0.05902,0.0231 0.05871,0.023 0.05846,0.0231 0.05805,0.023 0.0578,0.023 0.05749,0.0231 0.05723,0.023 0.05688,0.0231 0.05663,0.023 0.05627,0.0231 0.056,0.023 0.05565,0.0231 0.0554,0.023 0.05509,0.0231 0.05483,0.0231 0.05448,0.023 0.05422,0.0231 0.05392,0.0231 0.05362,0.023 0.05331,0.0231 0.053,0.023 0.0528,0.0231 0.05239,0.0231 0.05214,0.0231 0.05193,0.023 0.05157,0.0231 0.05127,0.023 0.05096,0.0231 0.05075,0.0231 0.0504,0.023 0.05015,0.023 0.04984,0.0231 0.04958,0.023 0.04927,0.0231 0.04897,0.0231 0.04872,0.023 0.04846,0.0231 0.04815,0.023 0.04785,0.0231 0.04765,0.023 0.04729,0.023 0.04709,0.0231 0.04678,0.0231 0.04648,0.023 0.04621,0.023 0.04596,0.0231 0.04566,0.023 0.04545,0.0231 0.04514,0.023 0.04484,0.023 0.04459,0.0231 0.04438,0.023 0.04408,0.0231 0.04377,0.023 0.04357,0.0231 0.04325,0.0231 0.04301,0.023 0.04275,0.023 0.04244,0.0231 0.04224,0.0231 0.04198,0.023 0.04168,0.0231 0.04152,0.023 0.04117,0.0231 0.04096,0.0231 0.04065,0.023 0.04046,0.023 0.04014,0.0231 0.03994,0.023 0.03969,0.0231 0.03938,0.0231 0.03923,0.023 0.03893,0.0231 0.03866,0.023 0.03847,0.0231 0.03821,0.0231 0.03795,0.023 0.0377,0.0231 0.03745,0.0231 0.03724,0.0231 0.03698,0.023 0.03677,0.0231 0.03653,0.023 0.03622,0.0231 0.03606,0.023 0.03581,0.023 0.03556,0.0231 0.03535,0.023 0.0351,0.0231 0.03489,0.023 0.03464,0.0231 0.03444,0.0231 0.03418,0.023 0.03398,0.0231 0.03372,0.023 0.03357,0.0231 0.03331,0.023 0.03305,0.0231 0.03286,0.023 0.03264,0.0231 0.03239,0.0231 0.0322,0.023 0.03198,0.0231 0.03173,0.023 0.03157,0.023 0.03127,0.0231 0.03116,0.0231 0.03092,0.023 0.03066,0.0231 0.03051,0.023 0.03025,0.0231 0.0301,0.023 0.02984,0.023 0.02969,0.0231 0.02938,0.0231 0.02928,0.023 0.02903,0.0231 0.02887,0.0231 0.02862,0.023 0.02846,0.0231 0.02826,0.023 0.02801,0.023 0.02785,0.0231 0.0277,0.023 0.02739,0.0231 0.02729,0.023 0.02708,0.0231 0.02689,0.023 0.02667,0.0231 0.02652,0.0231 0.02633,0.023 0.02606,0.0231 0.026,0.023 0.02571,0.0231 0.02555,0.023 0.02541,0.0231 0.0252,0.023 0.02504,0.0231 0.02485,0.0231 0.02469,0.023 0.02445,0.0231 0.02434,0.0231 0.02413,0.0231 0.02393,0.023 0.02383,0.0231 0.02361,0.023 0.02345,0.0231 0.02321,0.0231 0.02316,0.023 0.02292,0.0231 0.02276,0.0231 0.02259,0.023 0.02246,0.0231 0.02225,0.0231 0.02208,0.023 0.02198,0.0231 0.02173,0.023 0.02163,0.023 0.02146,0.0231 0.02128,0.023 0.02112,0.0231 0.02096,0.0231 0.02087,0.023 0.02066,0.023 0.0205,0.0231 0.02037,0.0231 0.0202,0.023 0.02004,0.0231 0.01993,0.023 0.01975,0.0231 0.01964,0.023 0.01945,0.0231 0.01935,0.023 0.01913,0.0231 0.01902,0.0231 0.01891,0.023 0.01872,0.023 0.01862,0.0231 0.0184,0.0231 0.01832,0.023 0.01821,0.0231 0.01805,0.023 0.01784,0.0231 0.01776,0.0231 0.01765,0.023 0.01749,0.0231 0.01741,0.0231 0.01719,0.023 0.01709,0.0231 0.01698,0.0231 0.01682,0.023 0.01673,0.0231 0.01658,0.023 0.01642,0.0231 0.01636,0.0231 0.01617,0.023 0.01612,0.0231 0.0159,0.0231 0.01588,0.0231 0.01566,0.023 0.01561,0.0231 0.01545,0.023 0.01542,0.0231 0.01521,0.0231 0.01515,0.023 0.01494,0.0231 0.01489,0.023 0.0148,0.0231 0.0147,0.023 0.01454,0.0231 0.01443,0.0231 0.01429,0.023 0.01424,0.0231 0.01413,0.023 0.01397,0.0231 0.01389,0.023 0.01384,0.0231 0.01362,0.023 0.01362,0.0231 0.01346,0.0231 0.01332,0.023 0.01327,0.0231 0.01316,0.023 0.013,0.023 0.01303,0.0231 0.01284,0.0231 0.01271,0.023 0.01271,0.0231 0.0126,0.023 0.01238,0.0231 0.01238,0.0231 0.01228,0.023 0.0122,0.0231 0.01203,0.0231 0.01198,0.023 0.01192,0.0231 0.0118,0.023 0.01174,0.023 0.01169,0.0231 0.01152,0.0231 0.01142,0.023 0.01139,0.0231 0.01131,0.023 0.01117,0.0231 0.01112,0.023 0.01102,0.0231 0.01099,0.023 0.01085,0.0231 0.01075,0.0231 0.01072,0.023 0.01067,0.0231 0.0105,0.023 0.0105,0.0231 0.01035,0.023 0.01031,0.0231 0.01021,0.023 0.01018,0.023 0.01004,0.0231 0.01004,0.023 0.0099,0.0231 0.0099,0.0231 0.0097,0.0231 0.0098,0.023 0.0096,0.0231 0.0096,0.023 0.0095,0.0231 0.0095,0.0231 0.0094,0.023 0.0093,0.0231 0.0092,0.0231 0.0092,0.023 0.0091,0.0231 0.009,0.0231 0.009,0.023 0.0089,0.0231 0.0088,0.0231 0.0088,0.023 0.0087,0.0231 0.0086,0.023 0.0086,0.0231 0.0085,0.0231 0.0085,0.023 0.0084,0.023 0.0083,0.0231 0.0084,0.0231 0.0082,0.023 0.0082,0.0231 0.0081,0.023 0.0081,0.0231 0.008,0.023 0.008,0.0231 0.0079,0.023 0.0079,0.023 0.0079,0.0231 0.0078,0.023 0.0077,0.023 0.0077,0.0231 0.0077,0.0231 0.0075,0.023 0.0075,0.0231 0.0074,0.023 0.0074,0.023 0.0074,0.0231 0.0073,0.023 0.0073,0.0231 0.0073,0.0231 0.0072,0.023 0.0071,0.0231 0.0071,0.023 0.0071,0.023 0.007,0.0231 0.007,0.0231 0.0069,0.023 0.007,0.0231 0.0069,0.023 0.0069,0.0231 0.0068,0.0231 0.0067,0.023 0.0067,0.023 0.0066,0.0231 0.0066,0.023 0.0065,0.0231 0.0065,0.0231 0.0065,0.023 0.0065,0.0231 0.0065,0.023 0.0064,0.0231 0.0064,0.023 0.0064,0.023 0.0063,0.0231 0.0063,0.0231 0.0063,0.0231 0.0062,0.023 0.0062,0.0231 0.0062,0.023 0.0061,0.0231 0.0061,0.023 0.0061,0.0231 0.0061,0.0231 0.0061,0.023 0.0061,0.0231 0.0059,0.023 0.006,0.0231 0.0059,0.0231 0.0059,0.0231 0.0059,0.023 0.0058,0.023 0.0058,0.0231 0.0058,0.023 0.0057,0.0231 0.0058,0.023 0.0057,0.0231 0.0056,0.0231 0.0056,0.023 0.0056,0.0231 0.0056,0.023 0.0056,0.023 0.0056,0.0231 0.0055,0.0231 0.0056,0.023 0.0055,0.0231 0.0055,0.023 0.0055,0.0231 0.0055,0.023 0.0054,0.023 0.0055,0.0231 0.0054,0.0231 0.0053,0.0231 0.0053,0.023 0.0053,0.0231 0.0053,0.023 0.0053,0.0231 0.0053,0.023 0.0052,0.023 0.0053,0.0231 0.0052,0.023 0.0052,0.0231 0.0052,0.023 0.0052,0.0231 0.0052,0.0231 0.0052,0.0231 0.0052,0.023 0.0052,0.023 0.0052,0.0231 0.0052,0.023 0.0052,0.0231 0.0051,0.023 0.0052,0.0231 0.0051,0.0231 0.0051,0.023 0.0051,0.0231 0.0051,0.0231 0.005,0.023 0.0051,0.0231 0.0051,0.0231 0.0051,0.023 0.0051,0.0231 0.0051,0.023 0.0051,0.0231 0.005,0.0231 0.005,0.023 0.005,0.0231 0.0051,0.0231 0.0049,0.0231 0.005,0.023 0.005,0.0231 0.0049,0.023 0.005,0.0231 0.0049,0.023 0.005,0.023 0.0049,0.0231 0.0049,0.023 0.005,0.0231 0.0049,0.023 0.0049,0.023 0.005,0.0231 0.0049,0.0231 0.0049,0.023 0.0049,0.023 0.0049,0.0231 0.0049,0.023 0.0049,0.0231 0.0049,0.023 0.0049,0.0231 0.0049,0.0231 0.0049,0.023 0.0049,0.0231 0.0049,0.023 0.0049,0.023 0.0049,0.0231 0.0049,0.0231 0.0049,0.023 0.0049,0.0231 0.0049,0.023 0.0049,0.0231 0.0049,0.0231 0.0049,0.023 0.0049,0.0231 0.0049,0.0231 0.0049,0.023 0.005,0.0231 0.0049,0.0231 0.005,0.023 0.005,0.0231 0.0049,0.023 0.005,0.023 0.0049,0.0231 0.005,0.023 0.005,0.0231 0.0049,0.0231 0.005,0.0231 0.005,0.023 0.005,0.0231 0.005,0.023 0.005,0.023 0.0051,0.0231 0.005,0.023 0.005,0.0231 0.0051,0.023 0.0051,0.0231 0.005,0.023 0.0051,0.0231 0.0051,0.0231 0.0051,0.023 0.0051,0.0231 0.0051,0.023 0.0051,0.0231 0.0051,0.023 0.0051,0.0231 0.0051,0.023 0.0051,0.0231 0.0051,0.0231 0.0052,0.023 0.0051,0.0231 0.0052,0.023 0.0052,0.023 0.0052,0.0231 0.0052,0.0231 0.0052,0.023 0.0052,0.0231 0.0052,0.023 0.0052,0.023 0.0052,0.0231 0.0052,0.023 0.0052,0.0231 0.0052,0.0231 0.0052,0.0231 0.0053,0.023 0.0052,0.0231 0.0053,0.023 0.0052,0.023 0.0053,0.0231 0.0053,0.023 0.0053,0.0231 0.0053,0.023 0.0054,0.0231 0.0053,0.023 0.0053,0.0231 0.0053,0.0231 0.0053,0.023 0.0054,0.0231 0.0054,0.023 0.0054,0.0231 0.0054,0.023 0.0055,0.0231 0.0054,0.023 0.0055,0.0231 0.0055,0.0231 0.0055,0.023 0.0055,0.0231 0.0055,0.023 0.0055,0.023 0.0055,0.0231 0.0056,0.0231 0.0055,0.023 0.0056,0.0231 0.0056,0.023 0.0056,0.0231 0.0056,0.0231 0.0056,0.023 0.0056,0.0231 0.0056,0.0231 0.0056,0.023 0.0056,0.0231 0.0057,0.0231 0.0056,0.023 0.0056,0.0231 0.0057,0.0231 0.0057,0.023 0.0057,0.0231 0.0058,0.023 0.0057,0.0231 0.0058,0.023 0.0058,0.023 0.0058,0.023 0.0058,0.0231 0.0058,0.0231 0.0058,0.023 0.0059,0.0231 0.0059,0.023 0.0058,0.0231 0.0059,0.023 0.0059,0.0231 0.0059,0.0231 0.0059,0.023 0.006,0.0231 0.0059,0.023 0.006,0.023 0.006,0.0231 0.006,0.0231 0.0061,0.023 0.0061,0.0231 0.0061,0.023 0.0061,0.023 0.0061,0.0231 0.0061,0.023 0.0061,0.0231 0.0061,0.0231 0.0061,0.023 0.0061,0.0231 0.0061,0.0231 0.0062,0.023 0.0061,0.0231 0.0062,0.0231 0.0062,0.023 0.0062,0.0231 0.0063,0.023 0.0062,0.0231 0.0062,0.0231 0.0063,0.0231 0.0063,0.023 0.0063,0.0231 0.0063,0.0231 0.0063,0.023 0.0063,0.0231 0.0064,0.023 0.0063,0.0231 0.0065,0.023 0.0063,0.0231 0.0065,0.023 0.0064,0.023 0.0065,0.0231 0.0065,0.023 0.0065,0.0231 0.0065,0.023 0.0065,0.0231 0.0065,0.023 0.0065,0.0231 0.0065,0.023 0.0065,0.0231 0.0065,0.0231 0.0065,0.023 0.0065,0.0231 0.0065,0.023 0.0065,0.023 0.0067,0.0231 0.0066,0.0231 0.0066,0.023 0.0066,0.023 0.0067,0.0231 0.0067,0.023 0.0067,0.0231 0.0067,0.023 0.0067,0.0231 0.0068,0.0231 0.0067,0.0231 0.0067,0.023 0.0068,0.023 0.0068,0.0231 0.0069,0.023 0.0068,0.0231 0.0069,0.023 0.0069,0.0231 0.0069,0.023 0.0069,0.0231 0.0069,0.023 0.007,0.023 0.0069,0.0231 0.007,0.023 0.007,0.0231 0.007,0.023 0.007,0.0231 0.007,0.023 0.007,0.0231 0.007,0.023 0.007,0.0231 0.007,0.0231 0.0071,0.023 0.007,0.0231 0.0071,0.023 0.0071,0.023 0.0071,0.0231 0.0071,0.0231 0.0071,0.023 0.0071,0.0231 0.0071,0.0231 0.0072,0.023 0.0072,0.0231 0.0072,0.023 0.0073,0.0231 0.0072,0.0231 0.0073,0.023 0.0073,0.0231 0.0073,0.0231 0.0073,0.023 0.0073,0.0231 0.0073,0.0231 0.0074,0.023 0.0073,0.0231 0.0074,0.023 0.0074,0.0231 0.0074,0.0231 0.0074,0.023 0.0074,0.0231 0.0074,0.0231 0.0074,0.0231 0.0074,0.023 0.0074,0.0231 0.0074,0.023 0.0074,0.0231 0.0075,0.023 0.0075,0.0231 0.0075,0.0231 0.0075,0.023 0.0075,0.0231 0.0075,0.023 0.0076,0.023 0.0075,0.0231 0.0076,0.0231 0.0075,0.023 0.0077,0.0231 0.0075,0.0231 0.0077,0.023 0.0076,0.0231 0.0077,0.023 0.0077,0.0231 0.0077,0.0231 0.0077,0.023 0.0077,0.0231 0.0077,0.0231 0.0078,0.023 0.0077,0.0231 0.0078,0.0231 0.0078,0.023 0.0078,0.0231 0.0079,0.023 0.0078,0.0231 0.0079,0.0231 0.0079,0.023 0.0079,0.0231 0.0079,0.0231 0.0079,0.0231 0.0079,0.023 0.0079,0.0231 0.0079,0.023 0.0079,0.0231 0.0079,0.023 0.0079,0.023 0.0079,0.0231 0.0079,0.023 0.0079,0.0231 0.0079,0.023 0.0079,0.0231 0.0079,0.023 0.0079,0.0231 0.008,0.023 0.008,0.023 0.008,0.0231 0.008,0.023 0.0081,0.0231 0.0081,0.023 0.0081,0.0231 0.0081,0.023 0.0081,0.023 0.0081,0.0231 0.0082,0.023 0.0081,0.0231 0.0081,0.023 0.0081,0.0231 0.0082,0.023 0.0082,0.0231 0.0081,0.023 0.0082,0.0231 0.0082,0.0231 0.0082,0.023 0.0082,0.0231 0.0082,0.023 0.0082,0.023 0.0082,0.0231 0.0083,0.0231 0.0082,0.023 0.0083,0.0231 0.0083,0.023 0.0083,0.023 0.0082,0.0231 0.0083,0.023 0.0083,0.0231 0.0083,0.023 0.0083,0.0231 0.0084,0.023 0.0083,0.0231 0.0083,0.023 0.0084,0.023 0.0084,0.0231 0.0084,0.023 0.0084,0.0231 0.0084,0.023 0.0084,0.0231 0.0084,0.023 0.0084,0.023 0.0084,0.0231 0.0085,0.023 0.0084,0.0231 0.0085,0.0231 0.0085,0.0231 0.0084,0.023 0.0085,0.0231 0.0085,0.023 0.0085,0.0231 0.0085,0.0231 0.0085,0.023 0.0085,0.0231 0.0085,0.0231 0.0085,0.023 0.0085,0.0231 0.0085,0.0231 0.0086,0.023 0.0086,0.0231 0.0086,0.023 0.0086,0.023 0.0086,0.0231 0.0086,0.023 0.0086,0.0231 0.0086,0.0231 0.0086,0.0231 0.0086,0.023 0.0086,0.0231 0.0086,0.023 0.0087,0.023 0.0086,0.0231 0.0087,0.023 0.0086,0.0231 0.0087,0.023 0.0087,0.0231 0.0087,0.023 0.0087,0.023 0.0087,0.0231 0.0087,0.023 0.0087,0.0231 0.0087,0.0231 0.0087,0.0231 0.0087,0.023 0.0088,0.0231 0.0088,0.023 0.0087,0.0231 0.0088,0.0231 0.0088,0.023 0.0088,0.0231 0.0088,0.0231 0.0088,0.023 0.0088,0.023 0.0088,0.0231 0.0088,0.023 0.0089,0.0231 0.0088,0.023 0.0089,0.023 0.0088,0.0231 0.0088,0.023 0.0088,0.0231 0.0089,0.0231 0.0088,0.0231 0.0089,0.023 0.0089,0.0231 0.0089,0.023 0.0089,0.023 0.0089,0.0231 0.0089,0.023 0.0088,0.0231 0.0089,0.023 0.0089,0.0231 0.0089,0.023 0.0089,0.0231 0.0089,0.023 0.009,0.023 0.0089,0.0231 0.0089,0.023 0.0089,0.0231 0.009,0.023 0.009,0.0231 0.0089,0.023 0.009,0.0231 0.009,0.023 0.009,0.023 0.009,0.0231 0.009,0.023 0.009,0.0231 0.009,0.023 0.009,0.0231 0.009,0.023 0.009,0.0231 0.0091,0.023 0.009,0.0231 0.009,0.0231 0.0091,0.023 0.009,0.0231 0.009,0.023 0.009,0.023 0.009,0.0231 0.0091,0.0231 0.0091,0.023 0.009,0.023 0.009,0.0231 0.0091,0.023 0.0091,0.0231 0.009,0.023 0.0091,0.0231 0.0091,0.0231 0.0091,0.0231 0.0091,0.023 0.0091,0.023 0.0091,0.0231 0.0091,0.023 0.0091,0.0231 0.0091,0.023 0.0092,0.0231 0.0091,0.023 0.0091,0.0231 0.0092,0.023 0.0091,0.023 0.0091,0.0231 0.0091,0.023 0.0092,0.0231 0.0092,0.0231 0.0091,0.0231 0.0092,0.023 0.0091,0.0231 0.0092,0.023 0.0091,0.0231 0.0092,0.0231 0.0092,0.023 0.0092,0.0231 0.0092,0.0231 0.0092,0.023 0.0092,0.0231 0.0092,0.0231 0.0092,0.023 0.0092,0.0231 0.0092,0.0231 0.0092,0.023 0.0092,0.0231 0.0092,0.023 0.0092,0.0231 0.0092,0.0231 0.0092,0.0231 0.0092,0.023 0.0092,0.0231 0.0092,0.023 0.0092,0.023 0.0092,0.0231 0.0093,0.023 0.0092,0.0231 0.0093,0.023 0.0092,0.0231 0.0093,0.023 0.0092,0.023 0.0093,0.0231 0.0092,0.023 0.0093,0.0231 0.0092,0.023 0.0093,0.0231 0.0093,0.023 0.0093,0.0231 0.0092,0.023 0.0093,0.0231 0.0093,0.0231 0.0093,0.023 0.0093,0.0231 0.0093,0.023 0.0092,0.0231 0.0093,0.023 0.0093,0.0231 0.0093,0.023 0.0093,0.0231 0.0093,0.0231 0.0093,0.023 0.0093,0.0231 0.0093,0.023 0.0093,0.0231 0.0093,0.0231 0.0093,0.0231 0.0093,0.023 0.0093,0.0231 0.0093,0.023 0.0093,0.023 0.0094,0.0231 0.0093,0.023 0.0093,0.0231 0.0093,0.023 0.0093,0.0231 0.0093,0.023 0.0093,0.023 0.0093,0.0231 0.0093,0.023 0.0093,0.0231 0.0094,0.023 0.0093,0.0231 0.0094,0.023 0.0093,0.0231 0.0094,0.023 0.0093,0.0231 0.0094,0.0231 0.0093,0.023 0.0094,0.0231 0.0094,0.023 0.0093,0.0231 0.0094,0.023 0.0094,0.0231 0.0093,0.023 0.0094,0.0231 0.0093,0.0231 0.0094,0.023 0.0094,0.0231 0.0094,0.023 0.0094,0.0231 0.0093,0.023 0.0093,0.023 0.0094,0.0231 0.0094,0.0231 0.0093,0.023 0.0094,0.023 0.0094,0.0231 0.0093,0.023 0.0095,0.0231 0.0094,0.023 0.0093,0.0231 0.0094,0.0231 0.0094,0.023 0.0093,0.0231 0.0094,0.023 0.0094,0.0231 0.0095,0.023 0.0093,0.0231 0.0094,0.023 0.0094,0.0231 0.0095,0.023 0.0093,0.023 0.0095,0.0231 0.0094,0.023 0.0093,0.0231 0.0094,0.023 0.0094,0.0231 0.0094,0.0231 0.0095,0.0231 0.0094,0.023 0.0094,0.0231 0.0094,0.0231 0.0094,0.023 0.0094,0.0231 0.0094,0.023 0.0094,0.0231 0.0095,0.0231 0.0094,0.023 0.0095,0.0231 0.0094,0.0231 0.0094,0.023 0.0094,0.0231 0.0094,0.0231 0.0094,0.023 0.0094,0.0231 0.0094,0.023 0.0094,0.0231 0.0094,0.0231 0.0095,0.023 0.0094,0.0231 0.0094,0.0231 0.0095,0.023 0.0094,0.023 0.0095,0.0231 0.0094,0.023 0.0094,0.0231 0.0094,0.023 0.0094,0.023 0.0094,0.0231 0.0095,0.023 0.0094,0.0231 0.0095,0.023 0.0094,0.0231 0.0094,0.023 0.0094,0.0231 0.0094,0.023 0.0095,0.023 0.0094,0.0231 0.0094,0.023 0.0095,0.0231 0.0094,0.023 0.0094,0.0231 0.0095,0.023 0.0094,0.0231 0.0094,0.023 0.0094,0.023 0.0094,0.0231 0.0095,0.0231 0.0094,0.0231 0.0094,0.023 0.0094,0.0231 0.0094,0.023 0.0094,0.0231 0.0094,0.0231 0.0095,0.023 0.0094,0.0231 0.0094,0.0231 0.0095,0.023 0.0094,0.023 0.0094,0.0231 0.0094,0.023 0.0094,0.0231 0.0094,0.023 0.0095,0.023 0.0094,0.0231 0.0094,0.023 0.0094,0.0231 0.0094,0.0231 0.0094,0.0231 0.0094,0.023 0.0095,0.0231 0.0094,0.023 0.0094,0.023 0.0095,0.0231 0.0094,0.023 0.0094,0.0231 0.0094,0.023 0.0094,0.0231 0.0094,0.023 0.0094,0.0231 0.0095,0.023 0.0094,0.023 0.0095,0.0231 0.0094,0.0231 0.0094,0.0231 0.0094,0.023 0.0095,0.0231 0.0094,0.023 0.0094,0.0231 0.0094,0.023 0.0094,0.023 0.0094,0.0231 0.0094,0.0231 0.0095,0.023 0.0094,0.023 0.0094,0.0231 0.0094,0.023 0.0094,0.0231 0.0095,0.023 0.0094,0.0231 0.0095,0.0231 0.0094,0.023 0.0094,0.0231 0.0094,0.023 0.0094,0.023 0.0094,0.0231 0.0094,0.0231 0.0095,0.023 0.0094,0.0231 0.0095,0.0231 0.0094,0.023 0.0094,0.0231 0.0094,0.023 0.0094,0.0231 0.0094,0.0231 0.0094,0.023 0.0094,0.023 0.0095,0.023 0.0094,0.023 0.0094,0.0231 0.0094,0.0231 0.0095,0.023 0.0094,0.0231 0.0094,0.023 0.0094,0.0231 0.0094,0.023 0.0094,0.023 0.0094,0.0231 0.0094,0.0231 0.0094,0.023 0.0094,0.023 0.0095,0.0231 0.0094,0.023 0.0094,0.0231 0.0094,0.023 0.0094,0.023 0.0094,0.0231 0.0094,0.023 0.0095,0.0231 0.0094,0.023 0.0094,0.023 0.0094,0.0231 0.0094,0.0231 0.0094,0.023 0.0094,0.023 0.0094,0.0231 0.0094,0.023 0.0095,0.0231 0.0094,0.023 0.0094,0.0231 0.0094,0.0231 0.0095,0.023 0.0093,0.023 0.0095,0.0231 0.0094,0.023 0.0093,0.0231 0.0094,0.0231 0.0094,0.023 0.0094,0.0231 0.0094,0.023 0.0093,0.0231 0.0094,0.023 0.0094,0.023 0.0094,0.0231 0.0094,0.0231 0.0094,0.023 0.0094,0.023 0.0094,0.0231 0.0094,0.023 0.0094,0.0231 0.0094,0.023 0.0093,0.023 0.0094,0.0231 0.0094,0.023 0.0093,0.0231 0.0094,0.023 0.0094,0.0231 0.0093,0.023 0.0094,0.0231 0.0094,0.023 0.0094,0.023 0.0094,0.0231 0.0094,0.023 0.0094,0.0231 0.0094,0.023 0.0094,0.0231 0.0094,0.0231 0.0093,0.023 0.0094,0.023 0.0094,0.023 0.0093,0.0231 0.0094,0.023 0.0094,0.0231 0.0094,0.023 0.0094,0.0231 0.0094,0.023 0.0094,0.0231 0.0093,0.023 0.0094,0.023 0.0093,0.0231 0.0094,0.0231 0.0094,0.023 0.0093,0.023 0.0094,0.0231 0.0094,0.023 0.0094,0.0231 0.0094,0.023 0.0093,0.023 0.0093,0.0231 0.0094,0.023 0.0094,0.0231 0.0094,0.023 0.0093,0.0231 0.0093,0.023 0.0094,0.0231 0.0094,0.023 0.0093,0.023 0.0094,0.0231 0.0093,0.023 0.0094,0.0231 0.0093,0.023 0.0093,0.0231 0.0094,0.023 0.0094,0.0231 0.0093,0.023 0.0094,0.023 0.0093,0.0231 0.0094,0.023 0.0093,0.0231 0.0094,0.023 0.0093,0.0231 0.0094,0.023 0.0093,0.0231 0.0094,0.023 0.0092,0.023 0.0094,0.0231 0.0093,0.023 0.0093,0.023 0.0093,0.023 0.0094,0.0231 0.0093,0.023 0.0093,0.0231 0.0094,0.023 0.0093,0.023 0.0093,0.0231 0.0093,0.023 0.0093,0.0231 0.0093,0.023 0.0093,0.0231 0.0093,0.023 0.0093,0.0231 0.0093,0.023 0.0094,0.023 0.0093,0.0231 0.0093,0.023 0.0093,0.0231 0.0093,0.023 0.0093,0.0231 0.0093,0.023 0.0093,0.023 0.0093,0.023 0.0093,0.023 0.0093,0.0231 0.0093,0.023 0.0093,0.0231 0.0093,0.023 0.0093,0.0231 0.0093,0.023 0.0093,0.0231 0.0092,0.023 0.0093,0.023 0.0093,0.0231 0.0093,0.023 0.0093,0.023 0.0093,0.023 0.0092,0.0231 0.0094,0.023 0.0092,0.0231 0.0094,0.023 0.0093,0.023 0.0093,0.0231 0.0093,0.023 0.0092,0.0231 0.0093,0.023 0.0093,0.023 0.0092,0.0231 0.0093,0.0231 0.0093,0.023 0.0093,0.023 0.0092,0.0231 0.0093,0.023 0.0093,0.0231 0.0093,0.023 0.0093,0.0231 0.0093,0.023 0.0093,0.023 0.0093,0.023 0.0093,0.023 0.0093,0.0231 0.0093,0.023 0.0092,0.0231 0.0093,0.023 0.0093,0.0231 0.0093,0.023 0.0092,0.0231" />
    </g>
    <path
       style="fill:none;stroke:#ffffff;stroke-width:2;stroke-linecap:round;stroke-linejoin:miter;stroke-dasharray:none;stroke-opacity:1"
       d="m 0.02430626,87.043057 c 0,0 18.40058274,5.392001 22.82647574,7.254912 5.033907,2.118838 8.281674,4.227251 9.718464,7.157221 1.850336,3.77329 -1.861198,11.30668 -1.886972,15.08825 -0.02772,4.0676 1.337502,20.75947 1.337502,20.75947"
       id="path6578"
       sodipodi:nodetypes="csssc" />
    <path
       style="display:inline;fill:none;stroke:#ffffff;stroke-width:2;stroke-linecap:round;stroke-linejoin:miter;stroke-dasharray:none;stroke-opacity:1"
       d="m 50.202172,87.036897 c 0,0 -12.106694,6.079854 -16.257051,8.532002 -4.332991,2.560053 -6.204859,5.127831 -6.716242,7.117431 -0.621436,2.41778 1.362664,6.15454 2.103773,8.81277 0.895827,3.21318 1.010353,5.96855 1.373318,8.14304 0.285858,1.71255 1.302404,17.61116 1.302404,17.61116"
       id="path6580"
       sodipodi:nodetypes="cssssc" />
  </g>
</svg>
